<?xml version="1.0" encoding="UTF-8" standalone="no"?>
<!DOCTYPE svg PUBLIC "-//W3C//DTD SVG 1.1//EN" "http://www.w3.org/Graphics/SVG/1.1/DTD/svg11.dtd">
<svg version="1.1" xmlns="http://www.w3.org/2000/svg" xmlns:xlink="http://www.w3.org/1999/xlink" preserveAspectRatio="xMidYMid meet" viewBox="0 0 640 640" width="640" height="640"><defs><path d="M0 0L640 0L640 640L0 640L0 0Z" id="a3s2AUG4Pz"></path><path d="M361.03 277.29L452.79 290.49L386.39 354.55L402.07 445L320 402.29L237.93 445L253.61 354.55L187.21 290.49L278.97 277.29L320 195L361.03 277.29Z" id="dCSSXIlIG"></path><path d="M270.41 333.17C270.41 309.82 292.61 290.9 320 290.9C347.39 290.9 369.59 309.82 369.59 333.17C369.59 356.51 347.39 375.43 320 375.43C313.35 375.43 307 374.32 301.21 372.29C299.98 373.04 293.86 376.79 282.85 383.52L285.71 363.69C275.51 351.34 270.41 341.17 270.41 333.17Z" id="b9rkkYdWEu"></path></defs><g><g><g><use xlink:href="#a3s2AUG4Pz" opacity="1" fill="#000000" fill-opacity="1"></use></g><g><g><filter id="shadow13381268" x="156.21" y="164" width="327.57" height="312" filterUnits="userSpaceOnUse" primitiveUnits="userSpaceOnUse"><feFlood></feFlood><feComposite in2="SourceAlpha" operator="in"></feComposite><feGaussianBlur stdDeviation="3.16"></feGaussianBlur><feOffset dx="0" dy="0" result="afterOffset"></feOffset><feFlood flood-color="#ffffff" flood-opacity="1"></feFlood><feComposite in2="afterOffset" operator="in"></feComposite><feMorphology operator="dilate" radius="6"></feMorphology><feComposite in2="SourceAlpha" operator="out"></feComposite></filter><path d="M361.03 277.29L452.79 290.49L386.39 354.55L402.07 445L320 402.29L237.93 445L253.61 354.55L187.21 290.49L278.97 277.29L320 195L361.03 277.29Z" id="bpQ6jMWd6" fill="white" fill-opacity="1" filter="url(#shadow13381268)"></path></g><use xlink:href="#dCSSXIlIG" opacity="1" fill="#fcfcfc" fill-opacity="0"></use><g><use xlink:href="#dCSSXIlIG" opacity="1" fill-opacity="0" stroke="#ffffff" stroke-width="1" stroke-opacity="1"></use></g></g><g><g><filter id="shadow16106661" x="250.41" y="270.9" width="139.18" height="132.62" filterUnits="userSpaceOnUse" primitiveUnits="userSpaceOnUse"><feFlood></feFlood><feComposite in2="SourceAlpha" operator="in"></feComposite><feGaussianBlur stdDeviation="2.45"></feGaussianBlur><feOffset dx="0" dy="0" result="afterOffset"></feOffset><feFlood flood-color="#ffffff" flood-opacity="0.5"></feFlood><feComposite in2="afterOffset" operator="in"></feComposite><feMorphology operator="dilate" radius="3"></feMorphology><feComposite in2="SourceAlpha" operator="out"></feComposite></filter><path d="M270.41 333.17C270.41 309.82 292.61 290.9 320 290.9C347.39 290.9 369.59 309.82 369.59 333.17C369.59 356.51 347.39 375.43 320 375.43C313.35 375.43 307 374.32 301.21 372.29C299.98 373.04 293.86 376.79 282.85 383.52L285.71 363.69C275.51 351.34 270.41 341.17 270.41 333.17Z" id="hsqoZC95C" fill="white" fill-opacity="1" filter="url(#shadow16106661)"></path></g><use xlink:href="#b9rkkYdWEu" opacity="1" fill="#000000" fill-opacity="0"></use><g><use xlink:href="#b9rkkYdWEu" opacity="1" fill-opacity="0" stroke="#ffffff" stroke-width="1" stroke-opacity="1"></use></g></g></g></g></svg>