<?xml version="1.0" encoding="UTF-8" standalone="no"?>
<!DOCTYPE svg PUBLIC "-//W3C//DTD SVG 1.1//EN" "http://www.w3.org/Graphics/SVG/1.1/DTD/svg11.dtd">
<svg version="1.1" xmlns="http://www.w3.org/2000/svg" xmlns:xlink="http://www.w3.org/1999/xlink" preserveAspectRatio="xMidYMid meet" viewBox="0 0 640 640" width="640" height="640"><defs><path d="M356.14 213.87L462.62 229.2L385.58 303.54L403.76 408.52L308.52 358.95L213.29 408.52L231.48 303.54L154.43 229.2L260.91 213.87L308.52 118.36L356.14 213.87Z" id="bUE923bdl"></path><path d="M243.77 279.84C243.77 246.79 273.31 220 309.75 220C346.2 220 375.74 246.79 375.74 279.84C375.74 312.9 346.2 339.69 309.76 339.69C300.9 339.69 292.46 338.11 284.75 335.25C283.12 336.31 274.98 341.61 260.33 351.15L264.12 323.07C250.55 305.58 243.77 291.17 243.77 279.84Z" id="b1AklJuzmv"></path></defs><g><g><g><g><filter id="shadow1338418" x="134.43" y="98.36" width="348.2" height="330.16" filterUnits="userSpaceOnUse" primitiveUnits="userSpaceOnUse"><feFlood></feFlood><feComposite in2="SourceAlpha" operator="in"></feComposite><feGaussianBlur stdDeviation="2.45"></feGaussianBlur><feOffset dx="0" dy="0" result="afterOffset"></feOffset><feFlood flood-color="#000000" flood-opacity="0.5"></feFlood><feComposite in2="afterOffset" operator="in"></feComposite><feMorphology operator="dilate" radius="3"></feMorphology><feComposite in2="SourceAlpha" operator="out"></feComposite></filter><path d="M356.14 213.87L462.62 229.2L385.58 303.54L403.76 408.52L308.52 358.95L213.29 408.52L231.48 303.54L154.43 229.2L260.91 213.87L308.52 118.36L356.14 213.87Z" id="m7DBfJaEW" fill="white" fill-opacity="1" filter="url(#shadow1338418)"></path></g><use xlink:href="#bUE923bdl" opacity="1" fill="#000000" fill-opacity="1"></use><g><use xlink:href="#bUE923bdl" opacity="1" fill-opacity="0" stroke="#000000" stroke-width="3" stroke-opacity="1"></use></g></g><g><g><filter id="shadow1480976" x="234.77" y="211" width="150.97" height="150.15" filterUnits="userSpaceOnUse" primitiveUnits="userSpaceOnUse"><feFlood></feFlood><feComposite in2="SourceAlpha" operator="in"></feComposite><feGaussianBlur stdDeviation="1"></feGaussianBlur><feOffset dx="1" dy="1" result="afterOffset"></feOffset><feFlood flood-color="#000000" flood-opacity="0.5"></feFlood><feComposite in2="afterOffset" operator="in"></feComposite><feMorphology operator="dilate" radius="1"></feMorphology><feComposite in2="SourceAlpha" operator="out"></feComposite></filter><path d="M243.77 279.84C243.77 246.79 273.31 220 309.75 220C346.2 220 375.74 246.79 375.74 279.84C375.74 312.9 346.2 339.69 309.76 339.69C300.9 339.69 292.46 338.11 284.75 335.25C283.12 336.31 274.98 341.61 260.33 351.15L264.12 323.07C250.55 305.58 243.77 291.17 243.77 279.84Z" id="fsp8NSySn" fill="white" fill-opacity="1" filter="url(#shadow1480976)"></path></g><use xlink:href="#b1AklJuzmv" opacity="1" fill="#ffffff" fill-opacity="1"></use><g><use xlink:href="#b1AklJuzmv" opacity="1" fill-opacity="0" stroke="#000000" stroke-width="3" stroke-opacity="1"></use></g></g></g></g></svg>